<?xml version="1.0" encoding="UTF-8"?>
<svg width="170px" height="56px" viewBox="0 0 170 56" version="1.1" xmlns="http://www.w3.org/2000/svg" xmlns:xlink="http://www.w3.org/1999/xlink">
    <!-- Generator: Sketch 61.2 (89653) - https://sketch.com -->
    <title>Group</title>
    <desc>Created with Sketch.</desc>
    <defs>
        <path d="M75.6416,35.1338 L75.6526,38.8808 L80.1066,38.8698 C80.1066,39.8058 79.7536,41.7978 77.7376,42.2248 C77.1246,42.3548 76.6256,42.3198 75.6416,42.3628 C75.6486,43.4638 75.6736,48.3288 75.6736,48.3288 C75.5376,50.1838 77.5036,49.8498 77.8686,49.8578 C78.1396,49.8628 79.7136,49.6158 79.7226,49.6448 C79.9816,50.5098 79.9536,50.9918 79.9086,51.3318 C79.7306,52.6828 78.9446,52.9988 78.9446,52.9988 C78.4246,53.1388 76.9106,53.6708 74.6926,52.8538 C71.6866,51.7448 71.7846,48.6368 71.7846,48.6368 L71.7625779,37.5328 C71.7596,36.4668 72.0616,35.8158 72.7806,35.4818 C73.7126,35.0488 74.7496,35.0758 75.6416,35.1338 Z M85.4608,38.6892 C86.9898,38.6722 89.1338,38.4362 91.6618,39.4012 C93.5538,40.1222 94.4668,42.4782 94.4648,44.7832 L94.4648,44.7832 L94.4645055,48.1046117 C94.4484443,48.8487977 94.1725143,52.5141388 90.3068,52.8832 C90.3068,52.8832 86.0998,53.1442 84.2258,52.8112 C81.5551714,52.3385143 81.3796649,49.8270237 81.369199,48.8947739 L81.3686872,48.6772 C81.3686872,48.0152 81.7898,45.9952 82.5838,45.4172 C84.2468,44.2052 85.5228,44.3162 87.1298,44.2602 C88.7358,44.2022 90.4368,44.1072 90.5538,43.0532 C90.6718,41.9982 88.9268,41.8692 88.2538,41.7722 C87.5438,41.6712 86.3718,41.6612 85.2578,41.7362 C83.7798,41.8362 82.4448,42.3202 82.4448,42.3202 C82.2958,41.0262 82.6688,40.0082 83.0908,39.5952 C83.4648,39.2302 84.0688,38.7062 85.4608,38.6892 Z M60.766,38.6892 C62.295,38.6722 64.439,38.4362 66.968,39.4012 C68.858,40.1222 69.772,42.4782 69.77,44.7832 L69.77,44.7832 L69.7701446,47.9787484 C69.7741458,48.15513 69.8291429,52.4805878 65.612,52.8832 C65.612,52.8832 61.405,53.1442 59.531,52.8112 C56.8603714,52.3385143 56.6848649,49.8270237 56.674399,48.8947739 L56.6738872,48.6772 C56.6738872,48.0152 57.095,45.9952 57.889,45.4172 C59.552,44.2052 60.828,44.3162 62.435,44.2602 C64.041,44.2022 65.742,44.1072 65.859,43.0532 C65.977,41.9982 64.231,41.8692 63.559,41.7722 C62.849,41.6712 61.677,41.6612 60.563,41.7362 C59.085,41.8362 57.75,42.3202 57.75,42.3202 C57.601,41.0262 57.973,40.0082 58.396,39.5952 C58.77,39.2302 59.374,38.7062 60.766,38.6892 Z M90.6608,46.2052 C90.6608,46.2052 89.8548,47.3022 87.9648,47.2892 C86.4008,47.2792 85.2578,47.6882 85.2578,48.5812 C85.2578,49.6552 86.6448,49.8262 87.9648,49.8262 C89.3148,49.8262 90.5138,50.0722 90.6628,48.0922 L90.6628,48.0922 Z M65.966,46.2052 C65.966,46.2052 65.16,47.3022 63.27,47.2892 C61.706,47.2792 60.563,47.6882 60.563,48.5812 C60.563,49.6552 61.949,49.8262 63.27,49.8262 C64.62,49.8262 65.819,50.0722 65.968,48.0922 L65.968,48.0922 Z M39.0254,35.9893 C39.0254,35.9893 39.3834,36.4063 41.0994,36.4213 C42.0604,36.4293 42.5704,36.6923 42.8004,37.3843 C43.0554,38.1493 42.9904,39.4673 42.9904,39.6033 L42.9912826,40.242241 C42.9971615,44.2667925 43.0146385,52.695018 43.0205174,53.6967273 L43.0206361,53.9947628 C42.9148626,56.4022314 39.3059789,55.9810105 39.0684,55.9703 L39.0684,55.9703 Z M52.0072,36.9734 C53.2382,35.5954 54.0602,36.4314 54.2742,36.5984 C54.8972,37.0824 55.5332,38.4454 55.7042,38.9654 L55.7042,38.9654 L49.0122,46.0254 C49.0122,46.0254 55.9072,52.6934 55.9072,53.4024 C55.9062,54.3584 55.6622,54.6394 55.3672,54.9114 C54.6472,55.5774 53.1362,55.8014 53.1362,55.8014 C53.1362,55.8014 47.8502,50.1374 46.0752,48.6454 C45.6072,48.2514 44.4782,47.3314 44.4782,47.3314 C43.7962,46.5334 44.1212,45.4304 44.1212,45.4304 L44.1212,45.4304 Z" id="path-1"></path>
        <path d="M105.2547,36.174 C105.5317,36.089 105.7767,36.078 105.9797,36.152 C106.2027,36.237 106.4267,36.387 106.6507,36.609 C106.8847,36.843 107.0767,37.076 107.2257,37.31 C107.3747,37.554 107.5247,37.83 107.6627,38.127 C107.8017,38.435 107.8867,38.647 107.9297,38.754 C107.9397,38.796 107.9607,38.839 107.9717,38.87 L107.9717,38.87 L101.2807,45.94 L103.1557,47.776 C104.2637,48.859 105.3937,50.027 106.5117,51.248 C107.9927,52.861 108.1537,53.254 108.1847,53.317 C108.2057,53.626 108.1737,53.901 108.0887,54.145 C107.9927,54.39 107.8757,54.592 107.7377,54.74 C107.5877,54.899 107.3967,55.048 107.1727,55.176 C106.9487,55.313 106.7357,55.409 106.5437,55.473 C106.3417,55.536 106.1277,55.59 105.9147,55.632 C105.6807,55.675 105.5217,55.706 105.4467,55.717 L105.4467,55.717 L105.4137,55.717 L103.8587,54.061 C102.7607,52.894 101.5147,51.619 100.1607,50.282 C98.7757,48.912 97.8487,48.084 97.3157,47.745 C97.0287,47.564 96.8047,47.352 96.6447,47.107 C96.4847,46.863 96.3777,46.651 96.3357,46.471 C96.3037,46.28 96.2827,46.078 96.3037,45.876 C96.3247,45.59 96.3467,45.494 96.3567,45.452 C96.3667,45.409 96.3777,45.378 96.3887,45.346 L96.3887,45.346 L97.7847,43.828 C98.7227,42.819 99.8407,41.609 101.2267,40.123 C102.5797,38.669 103.6027,37.586 104.3597,36.801 C104.6577,36.472 104.9667,36.259 105.2547,36.174 Z M134.1556,33.0002 C134.1556,33.0002 134.5786,33.4242 136.3246,33.4402 C138.1876,33.4592 137.9856,35.0082 138.0446,35.8232 L138.0446,35.8232 L138.0666,51.0562 C138.0666,51.0562 137.5026,52.5152 134.2506,52.9092 C133.0046,53.0602 131.1076,53.2372 129.2296,52.8612 C124.5456,51.9242 124.3966,48.1632 124.2886,46.3112 C124.2386,45.4632 124.1626,41.1942 127.4206,39.5712 C128.7136,38.9272 132.3856,38.1072 134.1656,39.2522 L134.1656,39.2522 Z M144.0595,38.6892 C145.5895,38.6722 147.7335,38.4362 150.2615,39.4012 C152.1525,40.1222 153.0665,42.4782 153.0645,44.7832 C153.063833,45.3912 153.064056,46.6063111 153.064278,47.3488296 L153.064919,48.0584713 C153.058682,48.6804886 152.859153,52.505751 148.9065,52.8832 C148.9065,52.8832 144.6995,53.1442 142.8255,52.8112 C140.154871,52.3385143 139.978533,49.8270237 139.967925,48.8947739 L139.967392,48.6772 C139.967392,48.0152 140.3885,45.9952 141.1825,45.4172 C142.8455,44.2052 144.1225,44.3162 145.7285,44.2602 C147.3355,44.2022 149.0365,44.1072 149.1535,43.0532 C149.2705,41.9982 147.5255,41.8692 146.8525,41.7722 C146.1425,41.6712 144.9705,41.6612 143.8575,41.7362 C142.3785,41.8362 141.0435,42.3202 141.0435,42.3202 C140.8945,41.0262 141.2675,40.0082 141.6905,39.5952 C142.0645,39.2302 142.6685,38.7062 144.0595,38.6892 Z M115.5368,38.6046 C119.8508,38.5446 122.8048,40.3516 122.8048,45.8666 C122.8048,50.8276 120.5978,52.8736 115.8598,52.9556 C113.9218,52.9896 110.2048,52.6466 108.8878,49.5736 C108.0298,47.5706 108.0038,43.6566 108.9578,41.9336 C109.9098,40.2146 111.4748,38.6616 115.5368,38.6046 Z M149.2595,46.2052 C149.2595,46.2052 148.4545,47.3022 146.5645,47.2892 C145.0005,47.2792 143.8575,47.6882 143.8575,48.5812 C143.8575,49.6552 145.2435,49.8262 146.5645,49.8262 C147.9145,49.8262 149.1135,50.0722 149.2615,48.0922 L149.2615,48.0922 Z M131.8256,41.9332 C131.0896,41.9332 128.2946,42.1502 128.2946,45.8162 C128.2946,49.4642 131.1096,49.5772 132.0186,49.5732 C133.0416,49.5692 134.1926,49.3032 134.1926,49.3032 L134.1926,49.3032 L134.1656,42.2462 C134.1656,42.2462 133.2896,41.9332 131.8256,41.9332 Z M115.5238,42.0766 C113.1078,42.0766 112.0268,43.1046 112.0268,45.5916 C112.0268,46.8406 112.0258,49.4746 115.5508,49.4746 C119.2748,49.4746 119.1158,46.5676 119.0738,45.9106 C118.9918,44.6066 118.8628,42.0766 115.5238,42.0766 Z" id="path-3"></path>
    </defs>
    <g id="Page-1" stroke="none" stroke-width="1" fill="none" fill-rule="evenodd">
        <g id="Artboard" transform="translate(-42.000000, -26.000000)">
            <g id="Group" transform="translate(42.000000, 26.000000)">
                <g id="Logo/O'Reilly-Header" fill="#D3002D">
                    <path d="M55.3926111,16.8863333 C58.7642778,15.9063333 61.2224091,12.8813333 61.2241263,9.28966667 C61.2224091,4.90633333 57.5648333,1.35633333 53.0486717,1.35466667 L38.9652879,1.35466667 L38.9652879,28.5596667 L43.6377121,28.5596667 L43.6377121,17.2246667 L50.1440758,17.2246667 L57.1922071,28.5596667 L62.6407929,28.5596667 L55.3926111,16.8863333 Z M43.6377121,12.6888333 L43.6377121,5.88716667 L53.0486717,5.88716667 C54.9822071,5.8905 56.5491263,7.4105 56.551702,9.28966667 C56.5491263,11.1646667 54.9822071,12.6855 53.0486717,12.6888333 L43.6377121,12.6888333 Z" id="Fill-5"></path>
                    <path d="M35.6548384,4.24925 C35.6548384,6.09341667 34.1153939,7.58925 32.216202,7.58925 C30.3170101,7.58925 28.7767071,6.09341667 28.7767071,4.24925 C28.7767071,2.40591667 30.3170101,0.91175 32.216202,0.91175 C34.1153939,0.91175 35.6548384,2.40591667 35.6548384,4.24925 M0.000343434343,15.0825833 C0.0012020202,7.25591667 6.5350404,0.913416667 14.5997374,0.91175 C22.6635758,0.913416667 29.1965556,7.25591667 29.1982727,15.0825833 C29.1965556,22.9075833 22.6635758,29.2500833 14.5997374,29.25175 C6.5350404,29.2500833 0.0012020202,22.9075833 0.000343434343,15.0825833 M7.57908081,8.26675 C5.77948485,10.0200833 4.67276768,12.4134167 4.67190909,15.0825833 C4.67276768,17.74925 5.77948485,20.14425 7.57908081,21.89425 C9.3829697,23.64175 11.8505455,24.7159167 14.5997374,24.7175833 C17.3480707,24.7159167 19.8139293,23.64175 21.6186768,21.89425 C23.4191313,20.14425 24.5258485,17.74925 24.5258485,15.0825833 C24.5258485,12.4134167 23.4191313,10.0200833 21.6186768,8.26675 C19.8139293,6.52175 17.3480707,5.44841667 14.5997374,5.44675 C11.8505455,5.44841667 9.3829697,6.52175 7.57908081,8.26675" id="Fill-7"></path>
                    <polygon id="Fill-9" points="160.787202 1.3545 155.110232 1.3545 147.920434 11.4545 140.729778 1.3545 135.052808 1.3545 145.578212 16.1461667 145.578212 28.5595 150.252354 28.5595 150.252354 16.157"></polygon>
                    <path d="M166.315035,0.747833333 C164.40554,0.747833333 162.856652,2.25033333 162.856652,4.10283333 C162.856652,5.95533333 164.40554,7.45783333 166.315035,7.45783333 C168.221955,7.45783333 169.771702,5.95533333 169.771702,4.10283333 C169.771702,2.25033333 168.221955,0.747833333 166.315035,0.747833333 M166.315035,6.92116667 C164.712056,6.92116667 163.411298,5.65866667 163.411298,4.10283333 C163.411298,2.54616667 164.712056,1.28366667 166.315035,1.28366667 C167.915439,1.28366667 169.217056,2.54616667 169.217056,4.10283333 C169.217056,5.65866667 167.915439,6.92116667 166.315035,6.92116667" id="Fill-11"></path>
                    <path d="M167.864955,3.365 C167.864955,2.81416667 167.407328,2.36833333 166.838944,2.36833333 L164.893389,2.36833333 L164.893389,5.7875 L165.478086,5.7875 L165.478086,4.36333333 L166.464601,4.36333333 L167.171217,5.7875 L167.824601,5.7875 L167.101672,4.33083333 C167.542126,4.21833333 167.864955,3.82916667 167.864955,3.365 L167.864955,3.365 Z M165.478086,2.93833333 L166.838944,2.93833333 C167.083641,2.93833333 167.277682,3.12916667 167.277682,3.365 C167.277682,3.60166667 167.083641,3.79333333 166.838944,3.79333333 L165.478086,3.79333333 L165.478086,2.93833333 Z" id="Fill-13"></path>
                    <polygon id="Fill-1" points="85.3967525 5.887 85.3967525 1.3545 65.9102879 1.3545 65.9102879 28.5595 85.3967525 28.5595 85.3967525 24.0245 70.5801364 24.0245 70.5801364 17.2236667 84.6832677 17.2236667 84.6832677 12.6886667 70.5801364 12.6886667 70.5801364 5.887"></polygon>
                    <polygon id="Fill-2" points="99.8560253 28.5595 99.8560253 1.3545 104.527591 1.3545 104.527591 24.0245 118.003955 24.0245 118.003955 28.5595"></polygon>
                    <polygon id="Fill-3" points="121.811697 28.5595 121.811697 1.3545 126.48498 1.3545 126.48498 24.0245 139.960485 24.0245 139.960485 28.5595"></polygon>
                    <polygon id="Fill-4" points="90.2991919 28.5591667 94.969899 28.5591667 94.969899 1.35416667 90.2991919 1.35416667"></polygon>
                </g>
                <mask id="mask-2" fill="white">
                    <use xlink:href="#path-1"></use>
                </mask>
                <use id="kata" fill="#043354" xlink:href="#path-1"></use>
                <mask id="mask-4" fill="white">
                    <use xlink:href="#path-3"></use>
                </mask>
                <use id="koda" fill="#074E87" xlink:href="#path-3"></use>
            </g>
        </g>
    </g>
</svg>